<svg width="32" height="37" viewBox="0 0 32 37" fill="none" xmlns="http://www.w3.org/2000/svg">
<path d="M24.1818 12.375C23.9432 11.5455 23.608 10.8125 23.1761 10.1761C22.7443 9.52841 22.2159 8.98295 21.5909 8.53977C20.9773 8.08523 20.2727 7.73864 19.4773 7.5C18.6932 7.26136 17.8239 7.14205 16.8693 7.14205C15.0852 7.14205 13.517 7.58523 12.1648 8.47159C10.8239 9.35795 9.77841 10.6477 9.02841 12.3409C8.27841 14.0227 7.90341 16.0795 7.90341 18.5114C7.90341 20.9432 8.27273 23.0114 9.01136 24.7159C9.75 26.4205 10.7955 27.7216 12.1477 28.6193C13.5 29.5057 15.0966 29.9489 16.9375 29.9489C18.608 29.9489 20.0341 29.6534 21.2159 29.0625C22.4091 28.4602 23.3182 27.6136 23.9432 26.5227C24.5795 25.4318 24.8977 24.142 24.8977 22.6534L26.3977 22.875H17.3977V17.3182H32.0057V21.7159C32.0057 24.7841 31.358 27.4205 30.0625 29.625C28.767 31.8182 26.983 33.5114 24.7102 34.7045C22.4375 35.8864 19.8352 36.4773 16.9034 36.4773C13.6307 36.4773 10.7557 35.7557 8.27841 34.3125C5.80114 32.858 3.86932 30.7955 2.48295 28.125C1.10795 25.4432 0.420455 22.2614 0.420455 18.5795C0.420455 15.75 0.829545 13.2273 1.64773 11.0114C2.47727 8.78409 3.63636 6.89773 5.125 5.35227C6.61364 3.80682 8.34659 2.63068 10.3239 1.82386C12.3011 1.01704 14.4432 0.613635 16.75 0.613635C18.7273 0.613635 20.5682 0.903408 22.2727 1.48295C23.9773 2.05114 25.4886 2.85795 26.8068 3.90341C28.1364 4.94886 29.2216 6.19318 30.0625 7.63636C30.9034 9.06818 31.4432 10.6477 31.6818 12.375H24.1818Z" fill="#074475"/>
</svg>
